<svg xmlns="http://www.w3.org/2000/svg" width="840" height="180" viewBox="0 0 840 180" role="img" aria-label="Languages — across 63 public repositories"><g font-family="-apple-system,BlinkMacSystemFont,'Segoe UI',Helvetica,Arial,sans-serif"><rect x="0.5" y="0.5" width="839" height="179" rx="10" fill="#ffffff" stroke="#d1d9e0"/><text x="20" y="32" fill="#1f2328" font-size="15" font-weight="600">Languages</text><text x="820" y="32" fill="#59636e" font-size="12.5" text-anchor="end">across 63 public repositories</text><clipPath id="c"><rect x="20" y="58" width="800" height="12" rx="6"/></clipPath><g clip-path="url(#c)"><rect x="20.00" y="58" width="253.37" height="12" fill="#f34b7d"/><rect x="273.37" y="58" width="243.95" height="12" fill="#178600"/><rect x="517.32" y="58" width="151.60" height="12" fill="#dea584"/><rect x="668.92" y="58" width="113.02" height="12" fill="#3572A5"/><rect x="781.94" y="58" width="9.87" height="12" fill="#555555"/><rect x="791.81" y="58" width="5.27" height="12" fill="#f1e05a"/><rect x="797.08" y="58" width="22.92" height="12" fill="#8b949e"/></g><circle cx="25" cy="92" r="5" fill="#f34b7d"/><text x="37" y="96" fill="#1f2328" font-size="12">C++</text><text x="269" y="96" fill="#59636e" font-size="12" text-anchor="end">31.7%</text><circle cx="25" cy="114" r="5" fill="#178600"/><text x="37" y="118" fill="#1f2328" font-size="12">C#</text><text x="269" y="118" fill="#59636e" font-size="12" text-anchor="end">30.5%</text><circle cx="25" cy="136" r="5" fill="#dea584"/><text x="37" y="140" fill="#1f2328" font-size="12">Rust</text><text x="269" y="140" fill="#59636e" font-size="12" text-anchor="end">18.9%</text><circle cx="291" cy="92" r="5" fill="#3572A5"/><text x="303" y="96" fill="#1f2328" font-size="12">Python</text><text x="535" y="96" fill="#59636e" font-size="12" text-anchor="end">14.1%</text><circle cx="291" cy="114" r="5" fill="#555555"/><text x="303" y="118" fill="#1f2328" font-size="12">C</text><text x="535" y="118" fill="#59636e" font-size="12" text-anchor="end">1.2%</text><circle cx="291" cy="136" r="5" fill="#f1e05a"/><text x="303" y="140" fill="#1f2328" font-size="12">JavaScript</text><text x="535" y="140" fill="#59636e" font-size="12" text-anchor="end">0.7%</text><circle cx="557" cy="92" r="5" fill="#8b949e"/><text x="569" y="96" fill="#1f2328" font-size="12">Other</text><text x="801" y="96" fill="#59636e" font-size="12" text-anchor="end">2.9%</text><text x="20" y="166" fill="#59636e" font-size="11">63 repositories · 149 stars · 168 followers</text></g></svg>