<svg xmlns="http://www.w3.org/2000/svg" width="840" height="180" viewBox="0 0 840 180" role="img" aria-label="Languages — across 63 public repositories"><g font-family="-apple-system,BlinkMacSystemFont,'Segoe UI',Helvetica,Arial,sans-serif"><rect x="0.5" y="0.5" width="839" height="179" rx="10" fill="#ffffff" stroke="#d1d9e0"/><text x="20" y="32" fill="#1f2328" font-size="15" font-weight="600">Languages</text><text x="820" y="32" fill="#59636e" font-size="12.5" text-anchor="end">across 63 public repositories</text><clipPath id="c"><rect x="20" y="58" width="800" height="12" rx="6"/></clipPath><g clip-path="url(#c)"><rect x="20.00" y="58" width="252.51" height="12" fill="#f34b7d"/><rect x="272.51" y="58" width="241.22" height="12" fill="#178600"/><rect x="513.73" y="58" width="152.17" height="12" fill="#dea584"/><rect x="665.90" y="58" width="115.27" height="12" fill="#3572A5"/><rect x="781.17" y="58" width="9.76" height="12" fill="#555555"/><rect x="790.93" y="58" width="6.14" height="12" fill="#f1e05a"/><rect x="797.07" y="58" width="22.93" height="12" fill="#8b949e"/></g><circle cx="25" cy="92" r="5" fill="#f34b7d"/><text x="37" y="96" fill="#1f2328" font-size="12">C++</text><text x="269" y="96" fill="#59636e" font-size="12" text-anchor="end">31.6%</text><circle cx="25" cy="114" r="5" fill="#178600"/><text x="37" y="118" fill="#1f2328" font-size="12">C#</text><text x="269" y="118" fill="#59636e" font-size="12" text-anchor="end">30.2%</text><circle cx="25" cy="136" r="5" fill="#dea584"/><text x="37" y="140" fill="#1f2328" font-size="12">Rust</text><text x="269" y="140" fill="#59636e" font-size="12" text-anchor="end">19.0%</text><circle cx="291" cy="92" r="5" fill="#3572A5"/><text x="303" y="96" fill="#1f2328" font-size="12">Python</text><text x="535" y="96" fill="#59636e" font-size="12" text-anchor="end">14.4%</text><circle cx="291" cy="114" r="5" fill="#555555"/><text x="303" y="118" fill="#1f2328" font-size="12">C</text><text x="535" y="118" fill="#59636e" font-size="12" text-anchor="end">1.2%</text><circle cx="291" cy="136" r="5" fill="#f1e05a"/><text x="303" y="140" fill="#1f2328" font-size="12">JavaScript</text><text x="535" y="140" fill="#59636e" font-size="12" text-anchor="end">0.8%</text><circle cx="557" cy="92" r="5" fill="#8b949e"/><text x="569" y="96" fill="#1f2328" font-size="12">Other</text><text x="801" y="96" fill="#59636e" font-size="12" text-anchor="end">2.9%</text><text x="20" y="166" fill="#59636e" font-size="11">63 repositories · 149 stars · 173 followers</text></g></svg>